<svg width="38" height="37" viewBox="0 0 38 37" fill="none" xmlns="http://www.w3.org/2000/svg">
<path d="M19.1097 0.609863C8.99996 0.609863 0.794922 8.72817 0.794922 18.7311C0.794922 28.734 8.99996 36.8523 19.1097 36.8523C29.2195 36.8523 37.4246 28.734 37.4246 18.7311C37.4246 8.72817 29.2195 0.609863 19.1097 0.609863ZM25.7214 12.0987C27.6811 12.0987 29.2561 13.6571 29.2561 15.5961C29.2561 17.5351 27.6811 19.0935 25.7214 19.0935C23.7617 19.0935 22.1866 17.5351 22.1866 15.5961C22.1683 13.6571 23.7617 12.0987 25.7214 12.0987ZM14.7325 9.23556C17.1134 9.23556 19.0548 11.1564 19.0548 13.5122C19.0548 15.8679 17.1134 17.7888 14.7325 17.7888C12.3516 17.7888 10.4102 15.8679 10.4102 13.5122C10.4102 11.1383 12.3333 9.23556 14.7325 9.23556ZM14.7325 25.7802V32.5757C10.3369 31.2166 6.85713 27.8642 5.31868 23.5876C7.24174 21.558 12.0402 20.5251 14.7325 20.5251C15.7032 20.5251 16.9303 20.67 18.2123 20.9237C15.2087 22.5003 14.7325 24.5842 14.7325 25.7802ZM19.1097 33.228C18.6152 33.228 18.1391 33.2099 17.6629 33.1556V25.7802C17.6629 23.207 23.0474 21.9204 25.7214 21.9204C27.6811 21.9204 31.0693 22.6271 32.7543 24.0043C30.6114 29.3863 25.3185 33.228 19.1097 33.228Z" fill="white"/>
</svg>
