<svg width="41" height="41" viewBox="0 0 41 41" fill="none" xmlns="http://www.w3.org/2000/svg">
<path d="M38.0116 8.82463H27.1588L24.9673 5.143C24.7529 4.78304 24.3651 4.5625 23.9462 4.5625H17.0536C16.6347 4.5625 16.2467 4.78304 16.0324 5.143L13.8409 8.82463H10.2796V8.01319C10.2796 7.35691 9.74755 6.82485 9.09128 6.82485H4.69426C4.03785 6.82485 3.50592 7.35691 3.50592 8.01319V8.82463H2.98827C1.33777 8.82463 0 10.1625 0 11.8128V33.4484C0 35.0988 1.33777 36.4367 2.98813 36.4367H38.0116C39.662 36.4367 40.9999 35.0988 40.9999 33.4484V11.8128C41 10.1625 39.662 8.82463 38.0116 8.82463ZM20.4999 31.1363C15.8023 31.1363 11.9942 27.3282 11.9942 22.6305C11.9942 17.933 15.8023 14.1247 20.4999 14.1247C25.1975 14.1247 29.0056 17.933 29.0056 22.6305C29.0056 27.3282 25.1975 31.1363 20.4999 31.1363ZM36.1472 14.9853H32.4236C31.7673 14.9853 31.2352 14.4532 31.2352 13.7968C31.2352 13.1404 31.7673 12.6083 32.4236 12.6083H36.1472C36.8038 12.6083 37.3357 13.1404 37.3357 13.7968C37.3357 14.4532 36.8036 14.9853 36.1472 14.9853Z" fill="#003E53"/>
<path d="M20.4997 28.5727C23.7815 28.5727 26.4418 25.9123 26.4418 22.6306C26.4418 19.3489 23.7815 16.6885 20.4997 16.6885C17.218 16.6885 14.5576 19.3489 14.5576 22.6306C14.5576 25.9123 17.218 28.5727 20.4997 28.5727Z" fill="#003E53"/>
</svg>
