<svg width="20" height="20" viewBox="0 0 20 20" fill="none" xmlns="http://www.w3.org/2000/svg">
<path d="M9.99199 1.66699C5.39199 1.66699 1.66699 5.40033 1.66699 10.0003C1.66699 14.6003 5.39199 18.3337 9.99199 18.3337C14.6003 18.3337 18.3337 14.6003 18.3337 10.0003C18.3337 5.40033 14.6003 1.66699 9.99199 1.66699ZM10.0003 16.667C6.31699 16.667 3.33366 13.6837 3.33366 10.0003C3.33366 6.31699 6.31699 3.33366 10.0003 3.33366C13.6837 3.33366 16.667 6.31699 16.667 10.0003C16.667 13.6837 13.6837 16.667 10.0003 16.667Z" fill="#003E53"/>
<path d="M10.417 5.83301H9.16699V10.833L13.542 13.458L14.167 12.433L10.417 10.208V5.83301Z" fill="#003E53"/>
</svg>
