<svg width="56" height="56" viewBox="0 0 56 56" fill="none" xmlns="http://www.w3.org/2000/svg">
<path d="M28 0.610107C12.875 0.610107 0.5 12.9576 0.5 28.1651C0.5 41.9151 10.565 53.3276 23.71 55.3901V36.1401H16.725V28.1651H23.71V22.0876C23.71 15.1851 27.8075 11.3901 34.105 11.3901C37.1025 11.3901 40.2375 11.9126 40.2375 11.9126V18.7051H36.7725C33.3625 18.7051 32.29 20.8226 32.29 22.9951V28.1651H39.935L38.6975 36.1401H32.29V55.3901C38.7702 54.3667 44.6711 51.0603 48.9273 46.0678C53.1835 41.0753 55.5147 34.7256 55.5 28.1651C55.5 12.9576 43.125 0.610107 28 0.610107Z" fill="#DEEDF2"/>
</svg>
