<svg width="29" height="29" viewBox="0 0 29 29" fill="none" xmlns="http://www.w3.org/2000/svg">
<path d="M24.2912 2.87533H18.3753V0.291992H28.7087V10.6253H26.1253V4.69658L19.8866 10.9353C20.4703 11.8168 20.8288 12.8281 20.9304 13.8804C21.032 14.9328 20.8738 15.994 20.4695 16.9709C20.0652 17.9478 19.4273 18.8105 18.6117 19.4833C17.7962 20.156 16.8279 20.6183 15.792 20.8295V23.542H18.3753V26.1253H15.792V28.7087H13.2087V26.1253H10.6253V23.542H13.2087V20.8295C12.1756 20.6183 11.21 20.1574 10.3962 19.487C9.58234 18.8167 8.945 17.9572 8.53983 16.9838C8.13465 16.0104 7.97398 14.9525 8.07182 13.9027C8.16967 12.8529 8.52307 11.8429 9.10116 10.9612L7.57699 9.42408L5.76866 11.2195L3.94741 9.38533L5.75574 7.58991L2.87533 4.70949V9.33366H0.291992V0.291992H9.33366V2.87533H4.69658L7.57699 5.76866L9.43699 3.92158L11.2712 5.75574L9.41116 7.60283L10.9224 9.12699C11.917 8.44241 13.2087 8.04199 14.5003 8.04199C15.792 8.04199 17.032 8.42949 18.0524 9.11407L24.2912 2.87533ZM14.5003 10.6253C13.4726 10.6253 12.487 11.0336 11.7603 11.7603C11.0336 12.487 10.6253 13.4726 10.6253 14.5003C10.6253 15.528 11.0336 16.5137 11.7603 17.2404C12.487 17.9671 13.4726 18.3753 14.5003 18.3753C15.528 18.3753 16.5137 17.9671 17.2404 17.2404C17.9671 16.5137 18.3753 15.528 18.3753 14.5003C18.3753 13.4726 17.9671 12.487 17.2404 11.7603C16.5137 11.0336 15.528 10.6253 14.5003 10.6253Z" fill="#336473"/>
</svg>
