<svg width="40" height="40" viewBox="0 0 40 40" fill="none" xmlns="http://www.w3.org/2000/svg">
<path d="M0 36.6667C0 38.5076 1.49238 40 3.33333 40H36.6667C38.5076 40 40 38.5076 40 36.6667C40 34.8257 38.5076 33.3333 36.6667 33.3333H3.33333C1.49238 33.3333 0 34.8257 0 36.6667ZM0 20C0 21.841 1.49238 23.3333 3.33333 23.3333H36.6667C38.5076 23.3333 40 21.841 40 20C40 18.1591 38.5076 16.6667 36.6667 16.6667H3.33333C1.49239 16.6667 0 18.1591 0 20ZM3.33333 0C1.49239 0 0 1.49238 0 3.33333C0 5.17428 1.49238 6.66667 3.33333 6.66667H36.6667C38.5076 6.66667 40 5.17428 40 3.33333C40 1.49238 38.5076 0 36.6667 0H3.33333Z" fill="#F9F9F9"/>
</svg>
