<svg width="54" height="54" viewBox="0 0 54 54" fill="none" xmlns="http://www.w3.org/2000/svg">
<path fill-rule="evenodd" clip-rule="evenodd" d="M16.0398 0.576248C18.8745 0.445748 19.7783 0.416748 26.9993 0.416748C34.2203 0.416748 35.1242 0.448165 37.9565 0.576248C40.7888 0.704331 42.7222 1.15625 44.4138 1.81116C46.1853 2.48058 47.7923 3.527 49.1215 4.88033C50.4748 6.20708 51.5188 7.81175 52.1858 9.58558C52.8432 11.2772 53.2927 13.2106 53.4232 16.0381C53.5537 18.8777 53.5827 19.7815 53.5827 27.0001C53.5827 34.2211 53.5513 35.1249 53.4232 37.9597C53.2951 40.7872 52.8432 42.7205 52.1858 44.4122C51.5188 46.1862 50.4731 47.7936 49.1215 49.1222C47.7923 50.4756 46.1853 51.5196 44.4138 52.1866C42.7222 52.8439 40.7888 53.2934 37.9613 53.4239C35.1242 53.5544 34.2203 53.5834 26.9993 53.5834C19.7783 53.5834 18.8745 53.552 16.0398 53.4239C13.2123 53.2958 11.2789 52.8439 9.58727 52.1866C7.81324 51.5195 6.20591 50.4738 4.87718 49.1222C3.52477 47.7947 2.47819 46.1881 1.81043 44.4146C1.15552 42.7229 0.706016 40.7896 0.575516 37.9621C0.445016 35.1225 0.416016 34.2187 0.416016 27.0001C0.416016 19.7791 0.447432 18.8752 0.575516 16.0429C0.703599 13.2106 1.15552 11.2772 1.81043 9.58558C2.47918 7.81194 3.52655 6.20542 4.8796 4.87791C6.20645 3.52579 7.81216 2.47924 9.58485 1.81116C11.2765 1.15625 13.2098 0.706748 16.0373 0.576248H16.0398ZM37.7414 5.36125C34.9381 5.23316 34.0971 5.20658 26.9993 5.20658C19.9016 5.20658 19.0606 5.23316 16.2573 5.36125C13.6642 5.47966 12.2577 5.91225 11.32 6.27716C10.0803 6.7605 9.19335 7.33325 8.26293 8.26366C7.38096 9.12171 6.7022 10.1663 6.27643 11.3207C5.91152 12.2584 5.47893 13.6649 5.36052 16.258C5.23243 19.0613 5.20585 19.9023 5.20585 27.0001C5.20585 34.0978 5.23243 34.9388 5.36052 37.7422C5.47893 40.3352 5.91152 41.7417 6.27643 42.6794C6.70177 43.8322 7.38085 44.8786 8.26293 45.7365C9.12085 46.6186 10.1673 47.2977 11.32 47.723C12.2577 48.0879 13.6642 48.5205 16.2573 48.6389C19.0606 48.767 19.8992 48.7936 26.9993 48.7936C34.0995 48.7936 34.9381 48.767 37.7414 48.6389C40.3345 48.5205 41.741 48.0879 42.6787 47.723C43.9184 47.2397 44.8053 46.6669 45.7358 45.7365C46.6178 44.8786 47.2969 43.8322 47.7223 42.6794C48.0872 41.7417 48.5198 40.3352 48.6382 37.7422C48.7663 34.9388 48.7928 34.0978 48.7928 27.0001C48.7928 19.9023 48.7663 19.0613 48.6382 16.258C48.5198 13.6649 48.0872 12.2584 47.7223 11.3207C47.2389 10.081 46.6662 9.19408 45.7358 8.26366C44.8777 7.38175 43.8331 6.70301 42.6787 6.27716C41.741 5.91225 40.3345 5.47966 37.7414 5.36125ZM23.6039 35.195C25.5002 35.9844 27.6117 36.0909 29.5778 35.4964C31.5438 34.9019 33.2425 33.6433 34.3837 31.9355C35.5249 30.2277 36.0378 28.1767 35.8348 26.1327C35.6318 24.0888 34.7254 22.1788 33.2706 20.7288C32.3432 19.802 31.2218 19.0923 29.9872 18.6509C28.7525 18.2094 27.4354 18.0472 26.1305 18.1759C24.8257 18.3046 23.5656 18.721 22.441 19.3951C21.3164 20.0693 20.3553 20.9844 19.6268 22.0746C18.8983 23.1647 18.4206 24.4029 18.2281 25.6998C18.0356 26.9968 18.133 28.3203 18.5133 29.5751C18.8937 30.8299 19.5475 31.9847 20.4278 32.9565C21.308 33.9283 22.3928 34.6928 23.6039 35.195ZM17.3375 17.3382C18.6063 16.0694 20.1126 15.063 21.7704 14.3763C23.4282 13.6896 25.205 13.3362 26.9993 13.3362C28.7937 13.3362 30.5705 13.6896 32.2283 14.3763C33.8861 15.063 35.3924 16.0694 36.6612 17.3382C37.93 18.6071 38.9365 20.1134 39.6231 21.7711C40.3098 23.4289 40.6632 25.2057 40.6632 27.0001C40.6632 28.7944 40.3098 30.5712 39.6231 32.229C38.9365 33.8868 37.93 35.3931 36.6612 36.6619C34.0987 39.2244 30.6232 40.664 26.9993 40.664C23.3755 40.664 19.9 39.2244 17.3375 36.6619C14.775 34.0994 13.3355 30.624 13.3355 27.0001C13.3355 23.3762 14.775 19.9007 17.3375 17.3382ZM43.6937 15.3711C44.0081 15.0745 44.2598 14.7178 44.4339 14.3222C44.608 13.9266 44.701 13.5 44.7073 13.0678C44.7136 12.6356 44.6331 12.2066 44.4706 11.806C44.3081 11.4055 44.0669 11.0416 43.7612 10.736C43.4556 10.4304 43.0918 10.1892 42.6912 10.0267C42.2907 9.86417 41.8616 9.78369 41.4294 9.78999C40.9972 9.79629 40.5707 9.88924 40.1751 10.0633C39.7795 10.2374 39.4228 10.4892 39.1262 10.8036C38.5493 11.4151 38.2335 12.2273 38.2458 13.0678C38.258 13.9084 38.5974 14.711 39.1918 15.3055C39.7862 15.8999 40.5889 16.2392 41.4294 16.2515C42.27 16.2637 43.0822 15.9479 43.6937 15.3711Z" fill="#DEEDF2"/>
</svg>
