<svg width="28" height="35" viewBox="0 0 28 35" fill="none" xmlns="http://www.w3.org/2000/svg">
<path d="M24.5 12H22.75V8.75C22.75 4.265 18.83 0.625 14 0.625C9.17 0.625 5.25 4.265 5.25 8.75V12H3.5C1.575 12 0 13.4625 0 15.25V31.5C0 33.2875 1.575 34.75 3.5 34.75H24.5C26.425 34.75 28 33.2875 28 31.5V15.25C28 13.4625 26.425 12 24.5 12ZM14 26.625C12.075 26.625 10.5 25.1625 10.5 23.375C10.5 21.5875 12.075 20.125 14 20.125C15.925 20.125 17.5 21.5875 17.5 23.375C17.5 25.1625 15.925 26.625 14 26.625ZM19.425 12H8.575V8.75C8.575 5.97125 11.0075 3.7125 14 3.7125C16.9925 3.7125 19.425 5.97125 19.425 8.75V12Z" fill="#336473"/>
</svg>
