<svg width="19" height="19" viewBox="0 0 19 19" fill="none" xmlns="http://www.w3.org/2000/svg">
<path d="M4.47352 8.30172C5.91352 11.1317 8.23352 13.4417 11.0635 14.8917L13.2635 12.6917C13.5335 12.4217 13.9335 12.3317 14.2835 12.4517C15.4035 12.8217 16.6135 13.0217 17.8535 13.0217C18.4035 13.0217 18.8535 13.4717 18.8535 14.0217V17.5117C18.8535 18.0617 18.4035 18.5117 17.8535 18.5117C8.46352 18.5117 0.853516 10.9017 0.853516 1.51172C0.853516 0.961719 1.30352 0.511719 1.85352 0.511719H5.35352C5.90352 0.511719 6.35352 0.961719 6.35352 1.51172C6.35352 2.76172 6.55352 3.96172 6.92352 5.08172C7.03352 5.43172 6.95352 5.82172 6.67352 6.10172L4.47352 8.30172Z" fill="#003E53"/>
</svg>
