<svg width="27" height="17" viewBox="0 0 27 17" fill="none" xmlns="http://www.w3.org/2000/svg">
<g clip-path="url(#clip0)">
<path d="M26.5029 7.98121C26.2646 7.65526 20.5872 0 13.3361 0C6.08497 0 0.407276 7.65526 0.169256 7.9809C-0.0564186 8.29014 -0.0564186 8.70955 0.169256 9.01879C0.407276 9.34474 6.08497 17 13.3361 17C20.5872 17 26.2646 9.34469 26.5029 9.01905C26.7289 8.70986 26.7289 8.29014 26.5029 7.98121ZM13.3361 15.2414C7.99486 15.2414 3.36881 10.1604 1.99939 8.4994C3.36703 6.8369 7.9834 1.75861 13.3361 1.75861C18.677 1.75861 23.3028 6.83867 24.6728 8.5006C23.3051 10.163 18.6888 15.2414 13.3361 15.2414Z" fill="black" fill-opacity="0.6"/>
<path d="M13.3364 3.22461C10.4274 3.22461 8.06055 5.59143 8.06055 8.5005C8.06055 11.4096 10.4274 13.7764 13.3364 13.7764C16.2455 13.7764 18.6123 11.4096 18.6123 8.5005C18.6123 5.59143 16.2455 3.22461 13.3364 3.22461ZM13.3364 12.0177C11.3969 12.0177 9.81921 10.4399 9.81921 8.5005C9.81921 6.56106 11.397 4.98327 13.3364 4.98327C15.2759 4.98327 16.8536 6.56106 16.8536 8.5005C16.8536 10.4399 15.2759 12.0177 13.3364 12.0177Z" fill="black" fill-opacity="0.6"/>
<line x1="27.3242" y1="-2.61938" x2="0.324233" y2="20.3806" stroke="black" stroke-opacity="0.6"/>
</g>
<defs>
<clipPath id="clip0">
<rect width="27" height="17" fill="white"/>
</clipPath>
</defs>
</svg>
