<svg width="25" height="25" viewBox="0 0 25 25" fill="none" xmlns="http://www.w3.org/2000/svg">
<path d="M0.0001373 9.2654C-0.00327349 9.47444 0.0569349 9.67958 0.172779 9.85362C0.288624 10.0277 0.454632 10.1624 0.648794 10.2399L10.5498 14.201L14.5109 24.103C14.5874 24.2945 14.7196 24.4587 14.8903 24.5744C15.0611 24.69 15.2626 24.7518 15.4689 24.7517H15.4854C15.6943 24.7484 15.8972 24.6817 16.0673 24.5606C16.2375 24.4394 16.3668 24.2694 16.4383 24.0731L24.6883 1.38561C24.7558 1.20105 24.7692 1.00102 24.7268 0.809104C24.6845 0.617183 24.5882 0.441356 24.4493 0.302331C24.3104 0.163306 24.1346 0.0668709 23.9427 0.0243847C23.7509 -0.0181015 23.5508 -0.00487003 23.3662 0.0625205L0.6787 8.31252C0.482315 8.38412 0.312293 8.51366 0.191128 8.68399C0.0699625 8.85432 0.00336221 9.05742 0.0001373 9.26643V9.2654Z" fill="#003E53"/>
</svg>
