<svg width="55" height="45" viewBox="0 0 55 45" fill="none" xmlns="http://www.w3.org/2000/svg">
<path d="M55 5.47968C52.9762 6.37904 50.8015 6.98686 48.519 7.2603C50.849 5.86078 52.638 3.64459 53.4804 1.00401C51.2655 2.32125 48.8422 3.24933 46.3152 3.74815C44.2567 1.55047 41.3243 0.177002 38.0787 0.177002C31.8469 0.177002 26.7945 5.24026 26.7945 11.4851C26.7945 12.3716 26.8944 13.2345 27.0866 14.0624C17.7087 13.5907 9.39426 9.08872 3.82873 2.247C2.85764 3.91717 2.30119 5.85992 2.30119 7.93207C2.30119 11.8555 4.29344 15.3166 7.32102 17.3446C5.52911 17.2884 3.77663 16.8033 2.20988 15.93C2.20924 15.9774 2.20924 16.0248 2.20924 16.0723C2.20924 21.5514 6.09877 26.122 11.2606 27.1609C9.59898 27.6137 7.85604 27.68 6.16494 27.3546C7.60074 31.8473 11.7681 35.1166 16.7056 35.2081C12.8438 38.241 7.97822 40.0489 2.69178 40.0489C1.78084 40.0489 0.882793 39.9953 0 39.8909C4.99361 43.0995 10.9248 44.9716 17.2971 44.9716C38.0525 44.9716 49.402 27.74 49.402 12.7966C49.402 12.3061 49.3913 11.8184 49.3694 11.3336C51.5785 9.73312 53.4852 7.75081 55 5.47968Z" fill="#DEEDF2"/>
</svg>
