<svg width="28" height="28" viewBox="0 0 28 28" fill="none" xmlns="http://www.w3.org/2000/svg">
<path d="M14.0006 27.9999C11.8516 27.9999 9.83018 27.5391 7.93619 26.6177C6.04221 25.6962 4.44871 24.4235 3.15571 22.7995L8.64644 18.5023C9.30205 19.2869 10.0942 19.8982 11.023 20.3361C11.9518 20.7741 12.9443 20.993 14.0006 20.993C15.931 20.993 17.5791 20.3133 18.945 18.9539C20.3108 17.5945 20.9938 15.9477 20.9938 14.0136C20.9938 12.0794 20.3108 10.428 18.945 9.05951C17.5791 7.69098 15.931 7.00672 14.0006 7.00672C12.4162 7.00672 10.9957 7.49939 9.73912 8.48473L14.0279 12.7545C14.0643 13.6121 13.7912 14.0318 13.2084 14.0136H1.18888C0.879282 13.9953 0.615217 13.822 0.39668 13.4935C0.178143 13.1651 0.0688751 12.8093 0.0688751 12.4261L0.014241 0.820993C-0.00397041 0.255337 0.414892 -0.0183682 1.27083 -0.000121235L4.76741 3.5033C6.024 2.39023 7.44449 1.52806 9.02888 0.91679C10.6133 0.305516 12.2705 -0.000121235 14.0006 -0.000121235C15.8946 -0.000121235 17.7066 0.36938 19.4367 1.10838C21.1668 1.84739 22.6555 2.84185 23.903 4.09177C25.1505 5.34168 26.143 6.82881 26.8806 8.55315C27.6181 10.2775 27.9869 12.0931 27.9869 13.9999C27.9869 15.9067 27.6181 17.7223 26.8806 19.4466C26.143 21.1709 25.1505 22.6581 23.903 23.908C22.6555 25.1579 21.1668 26.1524 19.4367 26.8914C17.7066 27.6304 15.8946 27.9999 14.0006 27.9999Z" fill="#336473"/>
</svg>
